<?xml version="1.0" encoding="utf-8"?>
<!-- Generator: Adobe Illustrator 27.1.1, SVG Export Plug-In . SVG Version: 6.00 Build 0)  -->
<svg version="1.1" id="Layer_1" xmlns="http://www.w3.org/2000/svg" xmlns:xlink="http://www.w3.org/1999/xlink" x="0px" y="0px"
	 viewBox="0 0 708.66 708.66" style="enable-background:new 0 0 708.66 708.66;" xml:space="preserve">
<style type="text/css">
	.st0{fill:#FFFFFF;}
</style>
<g>
	<g>
		<polygon class="st0" points="350.52,427.66 33.74,34.27 341.96,451.12 350.33,462.43 358.82,451.21 674.5,34.27 		"/>
		<polygon class="st0" points="350.58,355.63 33.74,34.27 342.71,378.1 350.41,386.66 358.2,378.19 674.5,34.27 		"/>
		<path class="st0" d="M350.66,285.93C304.42,249.34,33.73,33.34,33.64,34.39l310.14,273.29l6.79,5.98l6.85-5.91L674.5,34.27
			L350.66,285.93z"/>
		<polygon class="st0" points="351.17,217.32 33.74,34.27 345.52,238.73 351.07,242.37 356.65,238.78 674.5,34.27 		"/>
	</g>
	<g>
		<path class="st0" d="M45.28,606.78c1.25-0.08,2.24-0.21,2.99-0.38c0.66-0.16,1.31-0.56,1.93-1.19c0.62-0.62,1.19-1.43,1.68-2.43
			c0.16-0.33,0.33-0.69,0.5-1.06c0.16-0.38,0.33-0.77,0.5-1.19c0.16-0.42,0.33-0.89,0.5-1.44c0.16-0.54,0.37-1.1,0.62-1.68
			l26.18-73.07h1.75l31.3,82.29h10.6v2.12H87.55v-2.12h12.47l-9.6-25.06H61.99l-5.74,15.83c-0.25,0.91-0.46,1.68-0.62,2.31
			c-0.17,0.62-0.33,1.14-0.5,1.56c-0.09,0.5-0.17,0.91-0.25,1.25c-0.08,0.33-0.13,0.58-0.13,0.75c0,0.67,0.17,1.25,0.5,1.75
			c0.33,0.5,0.79,0.87,1.37,1.12c0.66,0.25,1.54,0.44,2.62,0.56c1.08,0.13,2.37,0.19,3.86,0.19l3.87-0.25v2.12H40.8v-2.12
			C42.54,606.82,44.04,606.86,45.28,606.78z M89.67,579.48l-13.84-36.91l-13.09,36.91H89.67z"/>
		<path class="st0" d="M163.36,525.61v2.12h-12.1v78.92h12.1v2.12h-36.66v-2.12h12.09v-78.92h-12.09v-2.12H163.36z"/>
		<path class="st0" d="M171.21,606.66c1.66,0.17,3.03,0.13,4.11-0.13c1.08-0.25,1.79-0.62,2.12-1.12c0.42-0.5,0.77-1.23,1.06-2.18
			c0.29-0.96,0.48-2.1,0.56-3.43c0-0.16,0-0.29,0-0.37c0-0.08,0.04-0.17,0.12-0.25c0-0.08,0-0.17,0-0.25v-5.48v-64.22l-2.24-1.49
			h-9.85v-2.12h25.81l48.51,61.34v-48.88c0-1.58-0.03-2.91-0.06-3.99c-0.05-1.08-0.11-1.91-0.19-2.5c-0.08-0.58-0.23-1.08-0.44-1.5
			c-0.21-0.41-0.48-0.75-0.81-1c-0.25-0.16-0.58-0.33-1-0.5c-0.42-0.17-0.87-0.29-1.37-0.38c-0.5-0.08-1.19-0.14-2.06-0.19
			c-0.87-0.04-1.93-0.06-3.18-0.06l-3.61-0.25v-2.12h26.68v2.12h-3.49c-1.25,0.17-2.31,0.27-3.18,0.31
			c-0.88,0.05-1.56,0.11-2.06,0.19c-0.5,0.08-0.94,0.23-1.31,0.44c-0.38,0.21-0.65,0.43-0.81,0.68c-0.08,0.08-0.17,0.17-0.25,0.25
			v0.13h-0.13c-0.25,0.33-0.44,0.68-0.56,1.06c-0.12,0.37-0.18,0.81-0.18,1.31c-0.08,0.5-0.13,1.26-0.13,2.3c0,1.04,0,2.35,0,3.93
			v71.07h-0.75l-61.34-77.93v61.97c0,3.41,0.15,6.09,0.44,8.04c0.29,1.95,0.73,3.22,1.31,3.8c0.58,0.58,1.81,1,3.68,1.25
			c1.87,0.25,4.39,0.38,7.54,0.38v1.87H167.1v-2.12H171.21z"/>
		<path class="st0" d="M265.48,579.1c0.17,1.83,0.31,3.43,0.44,4.8c0.13,1.37,0.27,2.55,0.43,3.55c0.17,1,0.42,1.95,0.75,2.87
			c0.33,0.92,0.66,1.79,1,2.62c0.08,0.25,0.17,0.48,0.25,0.68c0.08,0.21,0.16,0.4,0.25,0.56c0.17,0.17,0.31,0.35,0.44,0.56
			c0.13,0.21,0.23,0.4,0.31,0.56c1.16,1.99,2.57,3.8,4.24,5.42c1.66,1.62,3.61,3.05,5.86,4.3c2.16,1.24,4.41,2.16,6.73,2.74
			c2.32,0.58,4.69,0.87,7.11,0.87c3.33,0,6.32-0.41,8.97-1.25c2.66-0.83,4.99-2.12,6.99-3.86c1.99-1.74,3.49-3.78,4.49-6.11
			c1-2.33,1.49-4.91,1.49-7.73c0-1.16-0.13-2.29-0.37-3.37c-0.25-1.08-0.58-2.08-1-2.99c-0.42-0.91-0.94-1.76-1.56-2.56
			c-0.62-0.79-1.39-1.51-2.31-2.18c-1.33-0.91-2.72-1.73-4.18-2.43c-1.46-0.7-3.01-1.23-4.67-1.56c-1.67-0.41-3.37-0.79-5.12-1.12
			c-1.74-0.33-3.49-0.66-5.24-1c-3.33-0.5-6.53-1.16-9.6-1.99c-3.08-0.83-6.02-1.87-8.85-3.12c-2.83-1.25-4.93-3.43-6.3-6.55
			c-1.37-3.12-2.06-7.17-2.06-12.15c0-3.66,0.58-6.94,1.74-9.85c1.16-2.91,2.91-5.52,5.24-7.85c2.41-2.24,5.11-3.95,8.1-5.12
			c3-1.16,6.32-1.74,9.98-1.74c1.41,0,2.74,0.1,3.99,0.31c1.25,0.21,2.41,0.52,3.49,0.93c1.16,0.33,2.24,0.73,3.24,1.19
			c1,0.45,1.91,0.89,2.74,1.31c0.91,0.5,1.75,0.98,2.5,1.43c0.75,0.46,1.45,0.89,2.12,1.31c0.66,0.33,1.31,0.61,1.93,0.81
			c0.62,0.21,1.23,0.31,1.81,0.31c0.5,0,0.91-0.08,1.25-0.25s0.58-0.41,0.75-0.75c0.17-0.42,0.31-0.81,0.44-1.19
			s0.23-0.77,0.31-1.19c0-0.08,0.04-0.17,0.13-0.25c0-0.08,0-0.16,0-0.25c0-0.17,0-0.31,0-0.44c0-0.13,0.04-0.23,0.13-0.31
			c0-0.08,0-0.16,0-0.25l2.12-0.25v24.93h-2.12c-0.25-3.82-1.02-7.27-2.31-10.35c-1.29-3.08-3.1-5.77-5.42-8.1
			c-2.33-2.33-4.99-4.07-7.98-5.24c-2.99-1.16-6.32-1.75-9.97-1.75c-2.83,0-5.4,0.4-7.73,1.19c-2.33,0.79-4.36,2.02-6.11,3.68
			c-1.74,1.58-3.05,3.41-3.93,5.48c-0.88,2.08-1.31,4.41-1.31,6.99c0,3.16,0.58,5.78,1.74,7.85c1.16,2.08,2.91,3.58,5.24,4.49
			c2.41,0.92,4.94,1.73,7.61,2.43c2.66,0.7,5.49,1.31,8.48,1.81c0.17,0.08,0.36,0.15,0.56,0.19c0.2,0.04,0.43,0.06,0.68,0.06
			c0.25,0.08,0.5,0.15,0.75,0.19s0.5,0.06,0.75,0.06c3.24,0.58,6.34,1.35,9.29,2.3c2.95,0.96,5.75,2.1,8.42,3.43
			c2.66,1.33,4.67,3.41,6.05,6.23c1.37,2.83,2.06,6.44,2.06,10.85c0,4.24-0.62,8.02-1.87,11.34c-1.25,3.33-3.12,6.2-5.61,8.6
			c-2.5,2.41-5.4,4.2-8.73,5.36c-3.33,1.16-7.11,1.74-11.34,1.74c-1.33,0-2.66-0.08-3.99-0.25c-1.33-0.17-2.58-0.42-3.74-0.75
			c-1.16-0.33-2.29-0.64-3.36-0.93c-1.09-0.29-2.12-0.6-3.12-0.93c-0.5-0.17-1-0.33-1.5-0.5c-0.5-0.17-0.96-0.38-1.37-0.63
			c-0.5-0.16-0.96-0.33-1.37-0.5c-0.42-0.17-0.84-0.33-1.25-0.5c-0.84-0.33-1.64-0.58-2.43-0.75c-0.79-0.17-1.52-0.25-2.18-0.25
			c-0.58,0-1.06,0.1-1.44,0.31c-0.37,0.21-0.68,0.52-0.93,0.93c-0.25,0.33-0.45,0.85-0.62,1.56c-0.17,0.71-0.29,1.52-0.38,2.43
			h-2.12V579.1H265.48z"/>
		<path class="st0" d="M351.63,606.66h12.1v2.12h-36.28v-2.12h12.1v-78.92h-12.1v-2.12h36.28v2.12h-12.1v37.4h45.76v-37.4h-12.22
			v-2.12h36.41v2.12h-12.1v78.92h12.1v2.12h-36.41v-2.12h12.22v-39.4h-45.76V606.66z"/>
		<path class="st0" d="M427.69,606.78c1.25-0.08,2.24-0.21,2.99-0.38c0.67-0.16,1.31-0.56,1.93-1.19c0.63-0.62,1.19-1.43,1.69-2.43
			c0.17-0.33,0.33-0.69,0.5-1.06c0.17-0.38,0.33-0.77,0.5-1.19c0.17-0.42,0.33-0.89,0.5-1.44c0.17-0.54,0.38-1.1,0.63-1.68
			l26.18-73.07h1.74l31.3,82.29h10.6v2.12h-36.28v-2.12h12.47l-9.6-25.06H444.4l-5.73,15.83c-0.25,0.91-0.46,1.68-0.63,2.31
			c-0.17,0.62-0.33,1.14-0.5,1.56c-0.08,0.5-0.17,0.91-0.25,1.25c-0.08,0.33-0.13,0.58-0.13,0.75c0,0.67,0.17,1.25,0.5,1.75
			c0.33,0.5,0.79,0.87,1.37,1.12c0.67,0.25,1.54,0.44,2.62,0.56s2.37,0.19,3.86,0.19l3.87-0.25v2.12H423.2v-2.12
			C424.95,606.82,426.45,606.86,427.69,606.78z M472.08,579.48l-13.84-36.91l-13.09,36.91H472.08z"/>
		<path class="st0" d="M512.1,606.66c1.49,0.17,2.76,0.13,3.8-0.13c1.04-0.25,1.85-0.62,2.43-1.12c0.5-0.5,0.89-1.26,1.19-2.31
			c0.29-1.04,0.43-2.34,0.43-3.93v-5.73v-63.46l-1.12-2.24h-10.47v-2.12h23.19l27.18,62.47l25.44-62.47h24.19v2.12h-12.1v78.92h12.1
			v2.12H572.2v-2.12h11.97v-74.68l-30.92,75.18l-31.3-72.57v58.73c0,0.33,0,0.6,0,0.81c0,0.21,0,0.4,0,0.56c0,0.17,0,0.33,0,0.5
			c0,0.17,0.04,0.33,0.13,0.5c0,0.17,0,0.33,0,0.5s0,0.33,0,0.5c0,0.17,0,0.33,0,0.5s0,0.33,0,0.5c0,1.58,0.1,2.96,0.31,4.12
			c0.21,1.16,0.52,2.12,0.93,2.87c0.42,0.75,1.31,1.31,2.68,1.68c1.37,0.38,3.22,0.56,5.54,0.56l3.62-0.25v2.12h-27.3v-2.12H512.1z"
			/>
		<path class="st0" d="M619.58,579.1c0.17,1.83,0.31,3.43,0.44,4.8c0.13,1.37,0.27,2.55,0.43,3.55s0.42,1.95,0.75,2.87
			c0.33,0.92,0.66,1.79,1,2.62c0.08,0.25,0.17,0.48,0.25,0.68c0.08,0.21,0.16,0.4,0.25,0.56c0.17,0.17,0.31,0.35,0.44,0.56
			c0.13,0.21,0.23,0.4,0.31,0.56c1.16,1.99,2.57,3.8,4.24,5.42c1.66,1.62,3.61,3.05,5.86,4.3c2.16,1.24,4.41,2.16,6.73,2.74
			c2.32,0.58,4.69,0.87,7.11,0.87c3.33,0,6.32-0.41,8.97-1.25c2.66-0.83,4.99-2.12,6.99-3.86c1.99-1.74,3.49-3.78,4.49-6.11
			s1.49-4.91,1.49-7.73c0-1.16-0.13-2.29-0.37-3.37c-0.25-1.08-0.58-2.08-1-2.99c-0.42-0.91-0.94-1.76-1.56-2.56
			c-0.62-0.79-1.39-1.51-2.31-2.18c-1.33-0.91-2.72-1.73-4.18-2.43c-1.46-0.7-3.01-1.23-4.67-1.56c-1.67-0.41-3.37-0.79-5.12-1.12
			c-1.74-0.33-3.49-0.66-5.24-1c-3.33-0.5-6.53-1.16-9.6-1.99c-3.08-0.83-6.02-1.87-8.85-3.12c-2.83-1.25-4.93-3.43-6.3-6.55
			c-1.37-3.12-2.06-7.17-2.06-12.15c0-3.66,0.58-6.94,1.74-9.85c1.16-2.91,2.91-5.52,5.24-7.85c2.41-2.24,5.11-3.95,8.1-5.12
			c3-1.16,6.32-1.74,9.98-1.74c1.41,0,2.74,0.1,3.99,0.31c1.25,0.21,2.41,0.52,3.49,0.93c1.16,0.33,2.24,0.73,3.24,1.19
			c1,0.45,1.91,0.89,2.74,1.31c0.91,0.5,1.75,0.98,2.5,1.43c0.75,0.46,1.45,0.89,2.12,1.31c0.66,0.33,1.31,0.61,1.93,0.81
			c0.62,0.21,1.23,0.31,1.81,0.31c0.5,0,0.91-0.08,1.25-0.25c0.33-0.17,0.58-0.41,0.75-0.75c0.17-0.42,0.31-0.81,0.44-1.19
			s0.23-0.77,0.31-1.19c0-0.08,0.04-0.17,0.13-0.25c0-0.08,0-0.16,0-0.25c0-0.17,0-0.31,0-0.44c0-0.13,0.04-0.23,0.13-0.31
			c0-0.08,0-0.16,0-0.25l2.12-0.25v24.93h-2.12c-0.25-3.82-1.02-7.27-2.31-10.35c-1.29-3.08-3.1-5.77-5.42-8.1
			c-2.33-2.33-4.99-4.07-7.98-5.24c-2.99-1.16-6.32-1.75-9.97-1.75c-2.83,0-5.4,0.4-7.73,1.19c-2.33,0.79-4.36,2.02-6.11,3.68
			c-1.74,1.58-3.05,3.41-3.93,5.48c-0.88,2.08-1.31,4.41-1.31,6.99c0,3.16,0.58,5.78,1.74,7.85c1.16,2.08,2.91,3.58,5.24,4.49
			c2.41,0.92,4.94,1.73,7.61,2.43c2.66,0.7,5.49,1.31,8.48,1.81c0.17,0.08,0.36,0.15,0.56,0.19c0.2,0.04,0.43,0.06,0.68,0.06
			c0.25,0.08,0.5,0.15,0.75,0.19s0.5,0.06,0.75,0.06c3.24,0.58,6.34,1.35,9.29,2.3c2.95,0.96,5.75,2.1,8.42,3.43
			c2.66,1.33,4.67,3.41,6.05,6.23c1.37,2.83,2.06,6.44,2.06,10.85c0,4.24-0.62,8.02-1.87,11.34c-1.25,3.33-3.12,6.2-5.61,8.6
			c-2.5,2.41-5.4,4.2-8.73,5.36c-3.33,1.16-7.11,1.74-11.34,1.74c-1.33,0-2.66-0.08-3.99-0.25c-1.33-0.17-2.58-0.42-3.74-0.75
			c-1.16-0.33-2.29-0.64-3.36-0.93c-1.09-0.29-2.12-0.6-3.12-0.93c-0.5-0.17-1-0.33-1.5-0.5c-0.5-0.17-0.96-0.38-1.37-0.63
			c-0.5-0.16-0.96-0.33-1.37-0.5c-0.42-0.17-0.84-0.33-1.25-0.5c-0.84-0.33-1.64-0.58-2.43-0.75s-1.52-0.25-2.18-0.25
			c-0.58,0-1.06,0.1-1.44,0.31c-0.37,0.21-0.68,0.52-0.93,0.93c-0.25,0.33-0.45,0.85-0.62,1.56c-0.17,0.71-0.29,1.52-0.38,2.43
			h-2.12V579.1H619.58z"/>
	</g>
	<g>
		<path class="st0" d="M267.94,672.99h5.51v0.91h-15.88v-0.91h5.18v-33.84h-5.18v-0.91h14.86c0.28,0.07,0.57,0.11,0.88,0.14
			c0.3,0.02,0.61,0.03,0.93,0.03c0.32,0.04,0.64,0.06,0.96,0.08c0.32,0.02,0.64,0.05,0.96,0.08c1.46,0.15,2.85,0.43,4.17,0.86
			s2.58,1,3.8,1.71c1.21,0.72,2.12,1.68,2.73,2.91c0.61,1.23,0.91,2.7,0.91,4.41c0,1.43-0.33,2.73-0.99,3.9
			c-0.66,1.18-1.65,2.23-2.97,3.15c-1.32,0.93-2.82,1.62-4.49,2.09c-1.68,0.46-3.53,0.69-5.56,0.69c-0.4,0-0.76,0-1.1,0
			c-0.34,0-0.65-0.02-0.94-0.05c-0.25,0-0.51-0.03-0.77-0.08c-0.27-0.05-0.51-0.09-0.72-0.13c-0.18-0.04-0.36-0.08-0.54-0.14
			c-0.18-0.05-0.36-0.1-0.53-0.13c-0.18-0.07-0.38-0.14-0.59-0.19c-0.21-0.06-0.43-0.14-0.64-0.24v-0.11V672.99z M267.94,656.14
			c0.18,0.15,0.35,0.26,0.51,0.35c0.16,0.09,0.31,0.17,0.45,0.24c0.18,0.04,0.33,0.08,0.45,0.14c0.13,0.05,0.26,0.09,0.4,0.13
			c0.21,0.07,0.42,0.14,0.64,0.19c0.21,0.05,0.43,0.08,0.64,0.08c0.21,0.04,0.48,0.06,0.78,0.06c0.3,0,0.63,0,0.99,0
			c1.46,0,2.76-0.19,3.91-0.56c1.14-0.38,2.14-0.93,2.99-1.68c0.82-0.75,1.45-1.65,1.87-2.7c0.43-1.05,0.64-2.23,0.64-3.56
			c0-1.92-0.29-3.53-0.88-4.83c-0.59-1.3-1.46-2.27-2.59-2.91c-1.17-0.64-2.48-1.12-3.91-1.45c-1.43-0.32-2.98-0.48-4.65-0.48
			c-0.03,0-0.09,0-0.16,0c-0.04,0-0.07,0-0.11,0c-0.04,0-0.07,0-0.1,0c-0.04,0-0.08,0-0.14,0c-0.05,0-0.11,0-0.19,0
			c-0.04,0-0.09,0.01-0.16,0.03c-0.07,0.02-0.13,0.03-0.16,0.03c-0.07,0-0.14,0-0.19,0s-0.11,0-0.19,0c-0.04,0-0.09,0-0.16,0
			c-0.07,0-0.15,0-0.21,0c-0.07,0.04-0.16,0.05-0.25,0.05c-0.09,0-0.17,0-0.24,0v-0.1V656.14z"/>
		<path class="st0" d="M310.71,672.99h5.51v0.91h-15.93v-0.91h5.18v-33.84h-5.18v-0.91h18.45c0.1,0.07,0.21,0.1,0.32,0.1
			c0.11,0,0.21,0,0.32,0c0.07,0,0.13,0,0.19,0c0.05,0,0.11,0,0.18,0c0.04,0.04,0.09,0.06,0.16,0.06s0.13,0,0.16,0
			c1.25,0.07,2.44,0.28,3.58,0.61c1.14,0.34,2.23,0.81,3.26,1.42c1.03,0.57,1.82,1.39,2.35,2.46c0.54,1.07,0.8,2.35,0.8,3.85
			c0,1.5-0.27,2.76-0.8,3.8c-0.53,1.03-1.32,1.85-2.35,2.46c-1.07,0.57-2.19,1.05-3.34,1.45c-1.16,0.39-2.37,0.67-3.61,0.85
			c-0.03,0-0.06,0-0.08,0s-0.05,0-0.08,0c-0.04,0.04-0.06,0.06-0.08,0.06c-0.02,0-0.04,0-0.08,0c-0.04,0-0.07,0-0.11,0
			c-0.03,0-0.06,0-0.08,0s-0.05,0-0.08,0c1.1,0.14,2.08,0.32,2.94,0.53c0.86,0.21,1.57,0.45,2.14,0.69c0.61,0.25,1.14,0.55,1.6,0.91
			c0.46,0.36,0.87,0.79,1.23,1.28c0.29,0.36,0.53,0.78,0.73,1.26c0.19,0.48,0.34,1.02,0.45,1.63c0.1,0.57,0.21,1.17,0.32,1.79
			c0.1,0.63,0.18,1.26,0.21,1.9c0,0.1,0,0.2,0,0.29s0,0.17,0,0.24c0,0.1,0.01,0.2,0.03,0.29s0.05,0.17,0.08,0.24
			c0.07,0.89,0.17,1.74,0.3,2.54c0.13,0.8,0.26,1.56,0.4,2.27c0.18,0.68,0.46,1.2,0.85,1.55c0.39,0.36,0.88,0.53,1.45,0.53
			c0.04,0,0.07,0,0.1,0c0.04,0,0.07,0,0.11,0c0.07,0,0.13,0,0.16,0c0.07,0,0.13,0,0.18,0c0.06,0,0.1-0.02,0.14-0.05
			c0.07,0,0.16-0.01,0.27-0.03c0.11-0.02,0.21-0.04,0.32-0.08c0.1-0.04,0.24-0.08,0.4-0.14c0.16-0.05,0.33-0.1,0.51-0.14l0.32,0.64
			c-0.1,0.07-0.21,0.14-0.32,0.19c-0.11,0.05-0.21,0.1-0.32,0.14c-0.04,0.04-0.08,0.05-0.13,0.05c-0.06,0-0.1,0-0.14,0
			c-0.07,0-0.13,0-0.16,0c-0.04,0-0.09,0-0.16,0c-0.25,0.07-0.49,0.13-0.73,0.16c-0.23,0.03-0.47,0.07-0.72,0.1
			c-0.25,0.04-0.5,0.06-0.75,0.08c-0.25,0.02-0.52,0.03-0.8,0.03c-1.1,0-2.08-0.12-2.91-0.35c-0.84-0.23-1.5-0.62-2-1.15
			c-0.5-0.5-0.91-1.2-1.23-2.11c-0.32-0.91-0.55-2.02-0.7-3.34c-0.03-0.1-0.06-0.21-0.08-0.32c-0.02-0.1-0.03-0.23-0.03-0.38
			c-0.04-0.1-0.05-0.21-0.05-0.32c0-0.11,0-0.21,0-0.32c-0.04-0.21-0.06-0.42-0.08-0.64c-0.02-0.21-0.04-0.43-0.08-0.64
			c-0.21-1.68-0.5-3.09-0.86-4.22c-0.36-1.14-0.8-2.03-1.34-2.67c-0.53-0.64-1.49-1.13-2.86-1.47c-1.37-0.34-3.16-0.51-5.37-0.51
			l-2.08-0.11V672.99z M310.71,654.86c0.32,0.07,0.67,0.1,1.04,0.1c0.37,0,0.74,0,1.09,0c0.4,0,0.78-0.02,1.15-0.05
			c0.37-0.04,0.74-0.07,1.1-0.11c1.17-0.07,2.3-0.26,3.37-0.56c1.07-0.3,2.1-0.72,3.1-1.26c1-0.5,1.74-1.24,2.24-2.22
			c0.5-0.98,0.75-2.18,0.75-3.61c0-0.07,0-0.14,0-0.19c0-0.05,0-0.11,0-0.19c-0.04-0.07-0.05-0.14-0.05-0.21c0-0.07,0-0.14,0-0.21
			c-0.04-0.14-0.06-0.28-0.08-0.43c-0.02-0.14-0.03-0.28-0.03-0.42c-0.07-0.29-0.16-0.58-0.27-0.88c-0.1-0.3-0.21-0.62-0.32-0.94
			c-0.11-0.28-0.22-0.56-0.35-0.82c-0.13-0.27-0.28-0.51-0.45-0.73c-0.46-0.61-0.97-1.09-1.52-1.47s-1.19-0.65-1.9-0.83
			c-0.68-0.18-1.6-0.32-2.78-0.43c-1.17-0.1-2.58-0.16-4.22-0.16l-1.87-0.1V654.86z"/>
		<path class="st0" d="M363.85,672.99c1.57,0.07,2.94,0.07,4.11,0c1.18-0.07,2.16-0.18,2.94-0.32c0.82-0.14,1.56-0.34,2.22-0.61
			c0.66-0.27,1.27-0.58,1.84-0.93c0.75-0.5,1.34-1.03,1.76-1.58c0.43-0.55,0.71-1.13,0.86-1.73c0.1-0.61,0.19-1.27,0.27-2
			c0.07-0.73,0.1-1.49,0.1-2.28l0.86-0.1v10.48h-32.08v-0.91h5.18v-33.84h-5.18v-0.91h29.35l0.86,8.71h-0.86
			c-0.04-0.04-0.06-0.08-0.08-0.14c-0.02-0.05-0.03-0.11-0.03-0.18c0-0.04,0-0.07,0-0.11s0-0.07,0-0.1
			c-0.04-0.04-0.05-0.07-0.05-0.11s0-0.07,0-0.1c-0.14-0.86-0.31-1.59-0.51-2.19c-0.2-0.61-0.4-1.09-0.62-1.45
			c-0.21-0.39-0.48-0.74-0.8-1.04c-0.32-0.3-0.71-0.58-1.17-0.83c-0.46-0.25-0.99-0.46-1.58-0.64c-0.59-0.18-1.26-0.32-2-0.43
			c-0.75-0.1-1.62-0.19-2.62-0.27c-1-0.07-2.12-0.11-3.37-0.11l-6.14-0.1v16.2h2.14c1.46,0.07,2.71,0.01,3.74-0.19
			c1.03-0.2,1.87-0.48,2.51-0.83c0.64-0.39,1.13-0.89,1.47-1.5c0.34-0.61,0.51-1.32,0.51-2.14v-1.76h0.91v13.42h-0.91v-1.82
			c0-0.82-0.14-1.51-0.43-2.08c-0.28-0.57-0.71-1-1.28-1.28c-0.57-0.29-1.4-0.51-2.49-0.67c-1.09-0.16-2.45-0.24-4.09-0.24
			l-2.08-0.11v16.84H363.85z"/>
		<path class="st0" d="M394.59,661.17c0.07,0.78,0.13,1.47,0.19,2.06c0.05,0.59,0.11,1.1,0.18,1.52c0.07,0.43,0.18,0.84,0.32,1.23
			c0.14,0.4,0.28,0.77,0.43,1.13c0.04,0.1,0.07,0.2,0.1,0.29c0.04,0.09,0.07,0.17,0.11,0.24c0.07,0.07,0.13,0.15,0.19,0.24
			c0.05,0.09,0.09,0.17,0.13,0.24c0.5,0.86,1.11,1.63,1.82,2.33c0.72,0.69,1.55,1.31,2.52,1.84c0.92,0.53,1.88,0.92,2.89,1.17
			c1,0.25,2.01,0.38,3.04,0.38c1.43,0,2.71-0.18,3.85-0.54c1.14-0.35,2.14-0.91,2.99-1.65c0.86-0.75,1.5-1.62,1.93-2.62
			c0.43-1,0.64-2.1,0.64-3.32c0-0.5-0.06-0.98-0.16-1.44c-0.11-0.46-0.25-0.89-0.43-1.28c-0.18-0.39-0.4-0.76-0.67-1.1
			s-0.6-0.65-0.99-0.93c-0.57-0.39-1.16-0.74-1.79-1.04c-0.62-0.3-1.29-0.52-2-0.67c-0.71-0.18-1.44-0.34-2.19-0.48
			c-0.75-0.14-1.5-0.28-2.25-0.43c-1.43-0.21-2.8-0.5-4.11-0.86c-1.32-0.36-2.58-0.8-3.8-1.34c-1.21-0.53-2.11-1.47-2.7-2.8
			c-0.59-1.34-0.88-3.08-0.88-5.22c0-1.57,0.25-2.98,0.75-4.22c0.5-1.25,1.25-2.37,2.24-3.37c1.03-0.96,2.19-1.69,3.48-2.19
			c1.28-0.5,2.71-0.75,4.28-0.75c0.61,0,1.17,0.05,1.71,0.14c0.53,0.09,1.03,0.22,1.5,0.4c0.5,0.15,0.96,0.31,1.39,0.51
			c0.43,0.19,0.82,0.38,1.17,0.56c0.39,0.21,0.75,0.42,1.07,0.62c0.32,0.2,0.62,0.38,0.91,0.56c0.28,0.14,0.56,0.26,0.83,0.34
			c0.27,0.09,0.52,0.14,0.77,0.14c0.21,0,0.39-0.04,0.54-0.11c0.14-0.07,0.25-0.18,0.32-0.32c0.07-0.18,0.14-0.35,0.19-0.51
			c0.05-0.16,0.1-0.33,0.13-0.51c0-0.04,0.02-0.07,0.06-0.1c0-0.04,0-0.07,0-0.11c0-0.07,0-0.13,0-0.19c0-0.05,0.02-0.09,0.05-0.13
			c0-0.04,0-0.07,0-0.11l0.91-0.1v10.69h-0.91c-0.11-1.64-0.44-3.12-0.99-4.44c-0.55-1.32-1.33-2.47-2.32-3.48
			c-1-1-2.14-1.74-3.42-2.24c-1.28-0.5-2.71-0.75-4.28-0.75c-1.21,0-2.31,0.17-3.31,0.51c-1,0.34-1.87,0.87-2.62,1.58
			c-0.75,0.68-1.31,1.46-1.69,2.35c-0.37,0.89-0.56,1.89-0.56,2.99c0,1.36,0.25,2.48,0.75,3.37c0.5,0.89,1.25,1.53,2.24,1.93
			c1.03,0.39,2.12,0.74,3.26,1.04c1.14,0.3,2.35,0.56,3.63,0.77c0.07,0.04,0.15,0.06,0.24,0.08c0.09,0.02,0.19,0.03,0.3,0.03
			c0.1,0.04,0.21,0.06,0.32,0.08c0.1,0.02,0.21,0.03,0.32,0.03c1.39,0.25,2.72,0.58,3.98,0.99c1.27,0.41,2.47,0.9,3.61,1.47
			c1.14,0.57,2,1.46,2.59,2.67c0.59,1.21,0.88,2.76,0.88,4.65c0,1.82-0.27,3.44-0.8,4.87c-0.53,1.43-1.34,2.66-2.4,3.69
			c-1.07,1.04-2.32,1.8-3.74,2.3c-1.43,0.5-3.05,0.75-4.87,0.75c-0.57,0-1.14-0.04-1.71-0.1c-0.57-0.07-1.1-0.18-1.6-0.32
			c-0.5-0.14-0.98-0.28-1.44-0.4c-0.46-0.12-0.91-0.26-1.34-0.4c-0.21-0.07-0.43-0.15-0.64-0.21c-0.21-0.07-0.41-0.16-0.59-0.27
			c-0.21-0.07-0.41-0.14-0.58-0.21c-0.18-0.07-0.36-0.14-0.54-0.21c-0.36-0.15-0.7-0.25-1.04-0.32c-0.34-0.07-0.65-0.1-0.93-0.1
			c-0.25,0-0.45,0.04-0.62,0.13c-0.16,0.09-0.29,0.22-0.4,0.4c-0.11,0.14-0.2,0.37-0.27,0.67c-0.07,0.3-0.13,0.65-0.16,1.04h-0.91
			v-13.1H394.59z"/>
		<path class="st0" d="M434.36,661.17c0.07,0.78,0.13,1.47,0.19,2.06c0.05,0.59,0.11,1.1,0.18,1.52c0.07,0.43,0.18,0.84,0.32,1.23
			c0.14,0.4,0.28,0.77,0.43,1.13c0.04,0.1,0.07,0.2,0.1,0.29c0.04,0.09,0.07,0.17,0.11,0.24c0.07,0.07,0.13,0.15,0.19,0.24
			c0.05,0.09,0.09,0.17,0.13,0.24c0.5,0.86,1.11,1.63,1.82,2.33c0.72,0.69,1.55,1.31,2.52,1.84c0.92,0.53,1.88,0.92,2.89,1.17
			c1,0.25,2.01,0.38,3.04,0.38c1.43,0,2.71-0.18,3.85-0.54c1.14-0.35,2.14-0.91,2.99-1.65c0.86-0.75,1.5-1.62,1.93-2.62
			c0.43-1,0.64-2.1,0.64-3.32c0-0.5-0.06-0.98-0.16-1.44c-0.11-0.46-0.25-0.89-0.43-1.28c-0.18-0.39-0.4-0.76-0.67-1.1
			c-0.27-0.34-0.6-0.65-0.99-0.93c-0.57-0.39-1.16-0.74-1.79-1.04c-0.62-0.3-1.29-0.52-2-0.67c-0.71-0.18-1.44-0.34-2.19-0.48
			c-0.75-0.14-1.5-0.28-2.25-0.43c-1.43-0.21-2.8-0.5-4.11-0.86c-1.32-0.36-2.58-0.8-3.8-1.34c-1.21-0.53-2.11-1.47-2.7-2.8
			c-0.59-1.34-0.88-3.08-0.88-5.22c0-1.57,0.25-2.98,0.75-4.22c0.5-1.25,1.25-2.37,2.24-3.37c1.03-0.96,2.19-1.69,3.48-2.19
			c1.28-0.5,2.71-0.75,4.28-0.75c0.61,0,1.17,0.05,1.71,0.14c0.53,0.09,1.03,0.22,1.5,0.4c0.5,0.15,0.96,0.31,1.39,0.51
			c0.43,0.19,0.82,0.38,1.17,0.56c0.39,0.21,0.75,0.42,1.07,0.62c0.32,0.2,0.62,0.38,0.91,0.56c0.28,0.14,0.56,0.26,0.83,0.34
			c0.27,0.09,0.52,0.14,0.77,0.14c0.21,0,0.39-0.04,0.54-0.11c0.14-0.07,0.25-0.18,0.32-0.32c0.07-0.18,0.14-0.35,0.19-0.51
			c0.05-0.16,0.1-0.33,0.13-0.51c0-0.04,0.02-0.07,0.06-0.1c0-0.04,0-0.07,0-0.11c0-0.07,0-0.13,0-0.19c0-0.05,0.02-0.09,0.05-0.13
			c0-0.04,0-0.07,0-0.11l0.91-0.1v10.69h-0.91c-0.11-1.64-0.44-3.12-0.99-4.44c-0.55-1.32-1.33-2.47-2.32-3.48
			c-1-1-2.14-1.74-3.42-2.24c-1.28-0.5-2.71-0.75-4.28-0.75c-1.21,0-2.31,0.17-3.31,0.51c-1,0.34-1.87,0.87-2.62,1.58
			c-0.75,0.68-1.31,1.46-1.69,2.35c-0.37,0.89-0.56,1.89-0.56,2.99c0,1.36,0.25,2.48,0.75,3.37c0.5,0.89,1.25,1.53,2.24,1.93
			c1.03,0.39,2.12,0.74,3.26,1.04c1.14,0.3,2.35,0.56,3.63,0.77c0.07,0.04,0.15,0.06,0.24,0.08c0.09,0.02,0.19,0.03,0.3,0.03
			c0.1,0.04,0.21,0.06,0.32,0.08c0.1,0.02,0.21,0.03,0.32,0.03c1.39,0.25,2.72,0.58,3.98,0.99c1.27,0.41,2.47,0.9,3.61,1.47
			c1.14,0.57,2,1.46,2.59,2.67s0.88,2.76,0.88,4.65c0,1.82-0.27,3.44-0.8,4.87c-0.53,1.43-1.34,2.66-2.4,3.69
			c-1.07,1.04-2.32,1.8-3.74,2.3c-1.43,0.5-3.05,0.75-4.87,0.75c-0.57,0-1.14-0.04-1.71-0.1c-0.57-0.07-1.1-0.18-1.6-0.32
			c-0.5-0.14-0.98-0.28-1.44-0.4c-0.46-0.12-0.91-0.26-1.34-0.4c-0.21-0.07-0.43-0.15-0.64-0.21c-0.21-0.07-0.41-0.16-0.59-0.27
			c-0.21-0.07-0.41-0.14-0.58-0.21c-0.18-0.07-0.36-0.14-0.54-0.21c-0.36-0.15-0.7-0.25-1.04-0.32c-0.34-0.07-0.65-0.1-0.93-0.1
			c-0.25,0-0.45,0.04-0.62,0.13c-0.16,0.09-0.29,0.22-0.4,0.4c-0.11,0.14-0.2,0.37-0.27,0.67c-0.07,0.3-0.13,0.65-0.16,1.04h-0.91
			v-13.1H434.36z"/>
	</g>
</g>
</svg>
